<svg width="48" height="48" viewBox="0 0 48 48" fill="none" xmlns="http://www.w3.org/2000/svg">
<g clip-path="url(#clip0)">
<path d="M32.5826 23.3748C32.8738 23.3353 33.1554 23.3353 33.4175 23.3748C33.5632 23.0293 33.5923 22.4174 33.4564 21.766C33.2525 20.7889 32.9806 20.1967 32.4272 20.2954C31.8641 20.3842 31.8447 21.0948 32.0486 22.072C32.1554 22.6148 32.3593 23.0886 32.5826 23.3748Z" fill="black"/>
<path d="M27.7672 24.1447C28.1653 24.3223 28.4177 24.4408 28.5148 24.3421C28.573 24.273 28.5536 24.1545 28.4662 23.9966C28.2721 23.6709 27.8643 23.3353 27.4274 23.1478C26.5439 22.7629 25.4857 22.8912 24.6798 23.4834C24.408 23.6808 24.1556 23.9571 24.1944 24.1249C24.2041 24.1841 24.2429 24.2236 24.34 24.2335C24.5633 24.2631 25.3303 23.8584 26.2235 23.8091C26.8449 23.7696 27.3692 23.967 27.7672 24.1447Z" fill="black"/>
<path d="M26.9614 24.6185C26.4371 24.6974 26.1459 24.8751 25.9614 25.0429C25.8061 25.1811 25.709 25.339 25.709 25.4476C25.709 25.4969 25.7284 25.5265 25.7478 25.5463C25.7672 25.566 25.7964 25.5759 25.8352 25.5759C25.9517 25.5759 26.2138 25.4673 26.2138 25.4673C26.942 25.2008 27.4177 25.2304 27.8934 25.2896C28.1556 25.3192 28.2818 25.339 28.34 25.2403C28.3595 25.2107 28.3789 25.1613 28.3206 25.0725C28.2138 24.8652 27.6799 24.5296 26.9614 24.6185Z" fill="black"/>
<path d="M30.9613 26.3358C31.3205 26.5134 31.7089 26.4444 31.8351 26.1779C31.9613 25.9114 31.7768 25.5561 31.4273 25.3784C31.0681 25.2007 30.6798 25.2698 30.5535 25.5363C30.4176 25.8028 30.6021 26.1581 30.9613 26.3358Z" fill="black"/>
<path d="M33.2433 24.3026C32.952 24.2928 32.719 24.6185 32.7093 25.0232C32.6996 25.4278 32.9326 25.7535 33.2238 25.7634C33.5151 25.7733 33.7481 25.4476 33.7578 25.0429C33.7578 24.6382 33.5248 24.3125 33.2433 24.3026Z" fill="black"/>
<path d="M13.8737 31.5571C13.8058 31.4683 13.6795 31.4979 13.5727 31.5176C13.4951 31.5373 13.398 31.5571 13.3009 31.5571C13.0873 31.5571 12.9126 31.4584 12.8058 31.3005C12.6698 31.0932 12.6795 30.7872 12.8252 30.4418C12.8446 30.3924 12.864 30.3431 12.8931 30.2839C13.1261 29.7607 13.5145 28.8724 13.0873 28.0335C12.7572 27.4018 12.2232 27.007 11.5825 26.9281C10.9708 26.8491 10.33 27.0761 9.93197 27.5301C9.29119 28.2408 9.19411 29.2179 9.32032 29.5633C9.36886 29.6917 9.43683 29.7213 9.48537 29.7311C9.59216 29.7509 9.75721 29.662 9.8543 29.3956C9.86401 29.3758 9.87372 29.3462 9.88343 29.3067C9.93197 29.1587 10.0096 28.8922 10.1456 28.675C10.3106 28.4086 10.563 28.2309 10.864 28.1717C11.1747 28.1026 11.4854 28.1618 11.7475 28.3395C12.1941 28.6356 12.3689 29.1982 12.1747 29.7213C12.0776 29.9976 11.9126 30.5207 11.9514 30.955C12.0194 31.8236 12.5533 32.1789 13.0291 32.2184C13.4951 32.2381 13.8155 31.9716 13.8931 31.7841C13.9417 31.6558 13.9028 31.5867 13.8737 31.5571Z" fill="black"/>
<path d="M40.5149 29.9568C40.4955 29.8976 40.379 29.4732 40.2236 28.9599C40.0683 28.4467 39.9032 28.0914 39.9032 28.0914C40.5343 27.134 40.544 26.2753 40.4566 25.7818C40.3693 25.1797 40.1168 24.6665 39.6217 24.1335C39.1265 23.6005 38.1071 23.0577 36.6799 22.653C36.5149 22.6037 35.9809 22.4556 35.9324 22.4457C35.9324 22.4161 35.8935 20.6494 35.8644 19.8894C35.845 19.3367 35.7965 18.4879 35.5343 17.6391C35.2236 16.4941 34.6799 15.4973 34.0003 14.8557C35.8644 12.8817 37.0392 10.7202 37.0295 8.85475C37.0198 5.27194 32.6994 4.19611 27.3693 6.4366C27.3596 6.4366 26.2528 6.92023 26.2431 6.92023C26.2333 6.91036 24.2042 4.88701 24.1751 4.8574C18.0974 -0.531624 -0.89287 20.9356 5.1848 26.147L6.50519 27.2919C6.16538 28.2 6.02946 29.2363 6.13626 30.3516C6.28189 31.7828 7.01004 33.1646 8.1848 34.2207C9.30131 35.2274 10.777 35.8689 12.2042 35.8689C14.5634 41.406 19.9615 44.8013 26.2916 44.9888C33.078 45.1961 38.7867 41.9587 41.1751 36.1354C41.3304 35.7308 41.9906 33.8851 41.9906 32.2664C42.0003 30.628 41.0974 29.9568 40.5149 29.9568ZM12.7285 34.3095C12.5246 34.349 12.311 34.3588 12.0974 34.3588C10.0489 34.2996 7.83529 32.4243 7.62169 30.2036C7.37898 27.7459 8.61198 25.8509 10.8062 25.3969C11.0683 25.3475 11.3887 25.308 11.7285 25.3278C12.9518 25.3969 14.7673 26.3543 15.1751 29.0685C15.5343 31.4768 14.9518 33.9246 12.7285 34.3095ZM10.4469 23.9262C9.08771 24.1927 7.88383 24.9823 7.14597 26.068C6.70907 25.693 5.89354 24.9725 5.74791 24.6961C4.57315 22.4359 7.02946 18.0339 8.7382 15.5466C12.9712 9.3976 19.6023 4.74883 22.6702 5.58778C23.1654 5.73583 24.8256 7.68022 24.8256 7.68022C24.8256 7.68022 21.7576 9.40747 18.913 11.8256C15.078 14.8261 12.1751 19.1886 10.4469 23.9262ZM31.9712 33.3916C32.0198 33.3718 32.0489 33.3225 32.0392 33.2731C32.0295 33.2139 31.9809 33.1646 31.913 33.1744C31.913 33.1744 28.6994 33.6581 25.6605 32.5329C25.9906 31.4373 26.8741 31.8321 28.1945 31.9407C30.5926 32.0887 32.7382 31.7334 34.3207 31.2695C35.6994 30.8649 37.5052 30.0753 38.9032 28.9501C39.379 30.0062 39.544 31.1708 39.544 31.1708C39.544 31.1708 39.913 31.1017 40.2139 31.2991C40.5052 31.4768 40.7188 31.8519 40.5732 32.829C40.2819 34.6451 39.5149 36.1157 38.2431 37.4778C37.4664 38.3266 36.5246 39.0668 35.4469 39.5998C34.8741 39.9058 34.2625 40.1723 33.6217 40.3894C28.8062 41.9884 23.8838 40.2315 22.3013 36.4611C22.1751 36.1749 22.0683 35.8788 21.9809 35.5728C21.3013 33.0856 21.8741 30.1049 23.6702 28.2296C23.777 28.1111 23.8935 27.9729 23.8935 27.7953C23.8935 27.6472 23.7965 27.4893 23.7188 27.3807C23.0877 26.453 20.913 24.8738 21.3498 21.8239C21.6605 19.6328 23.5537 18.0832 25.311 18.172C25.4566 18.1819 25.612 18.1918 25.7576 18.2016C26.5246 18.251 27.1848 18.3497 27.8159 18.3694C28.8644 18.4188 29.8159 18.2609 30.9324 17.3133C31.311 16.9975 31.612 16.7211 32.1266 16.6323C32.1848 16.6224 32.311 16.5731 32.5829 16.583C32.8547 16.5928 33.1168 16.6718 33.3498 16.8297C34.2431 17.4318 34.379 18.9024 34.4178 19.9782C34.4469 20.5902 34.5149 22.0806 34.544 22.505C34.6023 23.4821 34.8547 23.6203 35.3596 23.7881C35.6508 23.8868 35.913 23.9559 36.3013 24.0644C37.4858 24.4 38.1945 24.7455 38.6411 25.1896C38.9032 25.466 39.0295 25.7621 39.0683 26.0384C39.2042 27.0748 38.2722 28.3579 35.8062 29.5225C33.1071 30.7958 29.8256 31.1215 27.5634 30.8649C27.3887 30.8451 26.777 30.776 26.7673 30.776C24.9615 30.5293 23.9227 32.9079 25.01 34.5365C25.7091 35.5827 27.6217 36.2736 29.5246 36.2736C33.9032 36.2736 37.2625 34.3786 38.5149 32.7303C38.5537 32.6809 38.5537 32.6711 38.612 32.5822C38.6702 32.4835 38.6217 32.4342 38.544 32.4934C37.5246 33.204 32.9809 36.0269 28.1265 35.178C28.1265 35.178 27.5343 35.0793 27.0003 34.8622C26.5732 34.6944 25.6799 34.27 25.5634 33.3422C29.5052 34.5562 31.9712 33.3916 31.9712 33.3916ZM25.7576 32.6513C25.7576 32.6513 25.7673 32.6513 25.7576 32.6513V32.6513ZM18.2625 15.517C19.7673 13.7503 21.6217 12.2106 23.2819 11.3519C23.3401 11.3223 23.3984 11.3815 23.3693 11.4407C23.2333 11.6874 22.9809 12.2007 22.9032 12.5955C22.8935 12.6547 22.9518 12.7041 23.01 12.6646C24.0392 11.9441 25.8353 11.1841 27.4178 11.0854C27.4858 11.0854 27.5149 11.1742 27.4664 11.2137C27.2236 11.4012 26.9615 11.6578 26.777 11.9243C26.7479 11.9737 26.777 12.0329 26.8256 12.0329C27.9324 12.0428 29.4955 12.4376 30.5052 13.01C30.5732 13.0495 30.5246 13.1877 30.4469 13.1679C28.913 12.8126 26.3887 12.5363 23.777 13.1877C21.4372 13.77 19.6605 14.6583 18.3596 15.6256C18.2916 15.6651 18.2139 15.5762 18.2625 15.517Z" fill="black"/>
</g>
<defs>
<clipPath id="clip0">
<rect x="4" y="4" width="38" height="41" fill="white"/>
</clipPath>
</defs>
</svg>
